<?xml version="1.0" standalone="no"?>
<svg xmlns:xlink="http://www.w3.org/1999/xlink" id="wave" style="transform:rotate(0deg); transition: 0.3s" viewBox="0 0 1440 450" version="1.1" xmlns="http://www.w3.org/2000/svg"><defs><linearGradient id="sw-gradient-0" x1="0" x2="0" y1="1" y2="0"><stop stop-color="rgba(243, 106, 62, 1)" offset="0%"/><stop stop-color="rgba(255, 201.834, 84.31, 1)" offset="100%"/></linearGradient></defs><path style="transform:translate(0, 0px); opacity:1" fill="url(#sw-gradient-0)" d="M0,135L80,112.5C160,90,320,45,480,82.5C640,120,800,240,960,255C1120,270,1280,180,1440,120C1600,60,1760,30,1920,67.5C2080,105,2240,210,2400,232.5C2560,255,2720,195,2880,157.5C3040,120,3200,105,3360,127.5C3520,150,3680,210,3840,202.5C4000,195,4160,120,4320,142.5C4480,165,4640,285,4800,337.5C4960,390,5120,375,5280,307.5C5440,240,5600,120,5760,90C5920,60,6080,120,6240,165C6400,210,6560,240,6720,210C6880,180,7040,90,7200,97.5C7360,105,7520,210,7680,277.5C7840,345,8000,375,8160,337.5C8320,300,8480,195,8640,127.5C8800,60,8960,30,9120,37.5C9280,45,9440,90,9600,90C9760,90,9920,45,10080,52.5C10240,60,10400,120,10560,150C10720,180,10880,180,11040,210C11200,240,11360,300,11440,330L11520,360L11520,450L11440,450C11360,450,11200,450,11040,450C10880,450,10720,450,10560,450C10400,450,10240,450,10080,450C9920,450,9760,450,9600,450C9440,450,9280,450,9120,450C8960,450,8800,450,8640,450C8480,450,8320,450,8160,450C8000,450,7840,450,7680,450C7520,450,7360,450,7200,450C7040,450,6880,450,6720,450C6560,450,6400,450,6240,450C6080,450,5920,450,5760,450C5600,450,5440,450,5280,450C5120,450,4960,450,4800,450C4640,450,4480,450,4320,450C4160,450,4000,450,3840,450C3680,450,3520,450,3360,450C3200,450,3040,450,2880,450C2720,450,2560,450,2400,450C2240,450,2080,450,1920,450C1760,450,1600,450,1440,450C1280,450,1120,450,960,450C800,450,640,450,480,450C320,450,160,450,80,450L0,450Z"/></svg>